<mxfile host="app.diagrams.net" modified="2024-04-22T09:26:43.037Z" agent="Mozilla/5.0 (Windows NT 10.0; Win64; x64) AppleWebKit/537.36 (KHTML, like Gecko) Chrome/123.0.0.0 Safari/537.36" etag="ECEyOgmqRpiSXeiJl-59" version="24.2.7" type="github">
  <diagram name="第 1 页" id="WBifuUziOrpBgVNUifT3">
    <mxGraphModel dx="1434" dy="780" grid="1" gridSize="10" guides="1" tooltips="1" connect="1" arrows="1" fold="1" page="1" pageScale="1" pageWidth="827" pageHeight="1169" math="0" shadow="0">
      <root>
        <mxCell id="0" />
        <mxCell id="1" parent="0" />
        <mxCell id="uDqeAKN0CxZrEolLGgEj-1" value="" style="shape=image;verticalLabelPosition=bottom;labelBackgroundColor=default;verticalAlign=top;aspect=fixed;imageAspect=0;image=data:image/png,iVBORw0KGgoAAAANSUhEUgAAAwEAAAFZCAYAAADAXSOmAAAAAXNSR0IArs4c6QAAAARnQU1BAACxjwv8YQUAAAAJcEhZcwAAFxEAABcRAcom8z8AAD5RSURBVHhe7Z1/zCxXed/zR/+I+lelqmqaiohEqRQpqeqqKAlqC67vdaFqqjpSFTlpqkLbNKRVcv3eC6mlWDIFUaxC4wiBADU2JCS1BSoWQWAURG6573tlHAMO2OKCwb8wxibYgLEd2wFnO9995xmfe/bMmTO78+Oc2c9H/sh3d2dnd2fne/Z5ZmfP+wMAALDfrKr/ZH1xA7u9zXqxDfzlfOvFNvCX860X28BfzrdebAN/Od96sQ385XzrxTbwl/OtF9vAX863XmwDfznferEN/OV868U28JfzrRfbwF/Ot15sA38533qxDfzlfOvFNvCX860XAwAAAMibruLFbm+zXmwDfznferEN/OV868U28JfzrRfbwF/Ot15sA38533qxDfzlfOvFNvCX860X28BfzrdebAN/Od96sQ385XzrxTbwl/OtF9vAX863XmwDfznferEN/OV868UAAAAA8obiBWA8yBcAAABkCUUKwHiQLwAAAMgSihSA8SBfAAAAkCUUKQDjQb4AAAAgSyhSAMaDfAEAAECWUKQAjAf5AgAAAADYM2gCAAAAAAD2DJoAAAAAAAAAAAAAAAAAAAAAAAAAAAAAAAAAAAAAGAx+uAgAAAAAsGfQBAAAAAAA7Bk0AQDjQb4AAAAgSyhSAMaDfAEAAECWUKQAjAf5AgAAgCyhSAEYD/IFAAAAWUKRAjAe5AsAAACyhCIFYDzIFwAAAADAnkETAAAAAACwZ9AEAAAAAAAAAAAAAAAAAAAAAEzFlZW/XvnX1peWh17f2ypftL70Aj9euetr/snK/175d9aXwtgy7mP99cq3V162vjQOP1354Ur/dQMAAADAhKgY/R+VsYJxalSMfqZS52r/UeUPVuaCntsNlf9hfakbFduhovr1lXp9/npUJJ+v1HuybTOgdTxX+a3KH9UVAWyZs5VWkLvbPfX19cV/bn+rcuzGAwAAAKAs9KNFWV8cCxWkKspesb70AipgX3b8zyRU4P2743/uhBoTvWb5T3TFDqiw/W+V7x7IC5X23FIKdSv2/WVtm4eKdG33pyp1+zbb0wrt2LZT8a3H8Iv9WyrVeO36bUQb9tzcx7XXq4akrWkBAAAA2B+q6nGKJsA9AuwWjlYofqwyVBD7qrjTOvxmog/2XFQA/1Tlxyt3LQy1ztA3HSp42wpxYc9l26LY7v9gpf9thh47dL1hhbG2Z9+j8kM2AVrXByqHagpCTYCw62PbBAAAAGA/UAMg64tjYkff3eKsrVAMYQXv/1pf2h7/NBk9ryGLUJexmwArbP1tkrpee0/6btNQE3BFpduw/Z9KLaOj7+71+qZD28Quaxk9By03RHHetk2ENUY/UTnG+71B9cKYIhQAAADyY8IiRQX//6u0gvjyyh+pnLIJaCsQ1RiMcYrK2E1A2yk/1lylbCv9/qDvKVGhJsAn9ZuAoel67Tr9yfaB0RuBCfMFAAAAkM5MRYqK32sqrWDzjxa32XaENwV7rLYCdIzidMwmIPZ6Uor0EGoIUp6Lv341I36xP0QToFOW9KPe0L7Qpn0D8WnnOv827e9y9EZgpnwBAAAAxBmpSNGpIbHZWFREqoBsKxRD7PJNgN03dj64LePOZrMrYzUBdj+9b6EGSt+46LYbneu6VIGs+0j/+YRO9dFy+i2Hez+9jy+u1PbTexyaRlTr0uk44r9Wdr3uvlOa7rKfDE61UWgCAAAAID9GLFJUALcV1L9TqWJ8iiZAj/H5ypTi3h5DhftrKnc9SjzmNwE6Sv7WytD9dGR+zB/A2u8qQt802LcEXQ2INQ/bvPYYu2zTwRkxXwAAAADbM2KR4hbUbhGsolxHiMXYTYAVpH0KQj2OTovRNtm1GRizCWhjiiJYr0vbJ9YEdJ2KlLrcNuj50QQAAAAAzERo9pkzlVb4jdkE6Aegj9T/T0XPR6fSaApS+wGpnr/UNwn/qbLPHz3bpQnQbdv8gTXbpmOdDmPPWdsk5yYgi6lAq41EEwAAAAB7hxWMVuTr8gcrrTizgjV0XntIFY1dR3h1mozm/n9bpc497/OHvHTakAo2qUZA6/p95zqts8/vBbZtAnS93bdvkRyaijWGmrK25xfCinc9xvlKf5vYe9r1tx/sdKAhmgC9Zj2ePY+2WZMmp3qBNAEAAACw96hY01+2NezI+8+sL12MCjn3r+CqMFZx3/aHwnS7Cn63GBS6fpsj6i76MWvoGwX/B7O+9td/Y+fHq6BWwepe5zYjfRsBO18/9UfB9vipj2Hrl7qP36xYE9C1vpRvAuw9DT1vU82ENSV29N8aodTXBAAAAAAjooLRLcw0O0zbkXUrNt1GQGj2mRD6uwO7FvvbEJu9ZttvArbF1mfFsP0Auw0rllMf39avBsMKeCv67XUOfTqQ3m//fdV2jZ3uY+tO/TYEAAAAAEZChdk9lW7hpmJOReivry9djJoAv9CzgrOU4q6rWB26CfCLXxX5bdvKHjvWpPjYe/iySreA1+OM1QSE6Nqutp+M9bsIAAAAAEhERb1flIUKfcO/Tefn22ky/ik/Mf5BZd8C+z9Xpq6/jZQCf+gmQNvMLeq1fp1CFSry7VuAPoWyim81FX4Br6L7ukq9BrttzN8EpDZXsWUAAAAA9peqCpvih4tt54n7hb7Ou7dz793bdO69Csu+P8wVKhhVGIcK0ZBWnO5aQKYcjR6yCWh7PBX7/vpt2T6v0b4F0PKxo/j+bW2vMbaOLrqaAKH9Z9smAwAAAGDZTNAEqAhsK9rsyLXOMbfi2wo3u03Xb1P8GykFo4sVp7uecpSyniGbANte/lF/ewz3eWib2HZORX87wZaPFfA6h9/+IrCwxx/y1JyU99Se45CPCwAAALAM1ADI+uKQ6Oi9Zv7RumWoGHOP9vvEbuvDtk3ArkeQ3fPk2xiqCej61sF9TducBqT7u7Mj9dlG9tzamiGd5qX9pM/2TnlPbdu2Lafb9duGUVG2ZH0RAAAAIA8mKFJUzGv9oSJv2yZAhWxq0ThHE5Ba3A/VBKQ0THb0X/Z5PD3Hf3/8zwZ/G8WmSrVvePRtztvr61y1Ht2uhmno99T2vVADoubE/nL1aFQPThMAAAAA+TFBkRIrqnNuAnY5HSi1kRiiCUh9LFuu69uJFEKPqalSQ9j7+Dcr9ReXh8B/T/Xj72sq9Y3CWyvt1DH7FiL0mvUa3L9ZMQoT5AsAAACgPxMUKXY0NqUJ0Pnk+uNQl1V2NQi5NgFW2KecbrNrE5D6WLac3geporjtj66lkNp4+M9P99v16LvW6X6rodfy2sq234zY/udvYzWSfU6J2orqgWkCAAAAID8mKFKsYAsVjLpNRZwKNRWVOjJrfxiqqwlILeCmbgL03M5Wpjzerk2AXpu2Q+y+9nrsaLhd1nui57nND65Tm4DQe6gfGPt/AC6GjvLrj8rptCJ73notr6lM+eNwbgPkbmeaAAAAANhfRi5S3ALMLxjd20LFqP2AVQXjv3D8N5U6xUO3pRTq1mhoBiL/fPSQdg77Nk2Ail7Nj5/acOzSBOixPlDZdj+tW9+qqHDW+fjucrrt9yv1Om3769uXVFIaJf2QWNu97X3vekw7lceeo9blNol90Lrsb0xoPfoWRNtv2+YrmeoBaQIAAABgLzlTeb4ydPqJikmdHhIqxNwmIaRf2LYx1TcBXUV5CCt0+xajKrBj57Prh7oqeruO9Gs9dnTdVBOjc/dj9+vaRtoWKrbbfnvgvrdaTu/lv6oMNYJWtO+K2wiYNAEAAAAAC0Wnn+jUkdRiT1NWqghOXV4Fbd/HMLZpAlSAtx1BV1GvhqvP31XQ87dvDKw41v1jR9zbmgCbFjbldB//cX+9su/264u9V/Y6Y43KIFQPQhMAAAAAsDDUMOgUotSC20dNwHWV295fWDGtWXHcP9K1DSriU364qybAZuGxmXl0uc8pRYZ+DD76fP0ets0uVG5z2hcAAAAAAAAAAAAAAAAAAAAAAAAAAABAFvDDRQAAAACAPYMmAAAAAABgz6AJABgP8gUAAABZQpECMB7kCwAAALKEIgVgPMgXAAAAZAlFCsB4kC8AAADIEooUgPEgXwAAAJAlFCkA40G+AAAAAAD2DJoAAAAAAIA9gyYAAAAAAAAAAAAAAAAAAAAAAAAAAAAAAAAAAAAABoMfLgIAAAAA7Bk0AQAAAAAAewZNAMB4kC8AAADIEooUgPEgXwAAAJAlFCkA40G+AAAAIEsoUgDGg3wBAABAllCkAIwH+QIAAIAsoUgBGA/yBQAAAACwZ9AEAAAAAADsGTQBAAAAAAAAAAAAAAAAAAAAAAAAAAAAAAAAAAAAMBj8cBEAAAAAYM+gCQAAAAAA2DNoAgDGg3wBAABAllCkAIwH+QIAAIAsoUgBGA/yBQAAAFlCkQIwHuQLAAAAsoQiBWA8yBcAAABkCUUKwHiQLwAAAACAPYMmAAAAAABgz6AJAAAAAAAAAAAAAAAAAAAAAAAAAAAAAAAAAAAAgMHgh4sAAAAAAHsGTQAAAAAAwJ5BEwAwHuQLAAAAsoQiBWA8yBcAAABkCUUKwHiQLwAAAMgSihSA8SBfAAAAkCUUKQDjQb4AAAAgSyhSAMaDfAEAAAAA7Bk0AQAAAAAAewZNAABAofztn/r5FeI21rsQ7EBouyL61rsLAADAcIQ+cBBTrHch2IHQdkX0rXcXAACA4bAPmZOnjxCTpDAZDvKHMckaAACMBkUI9pXCZDjIH8YkawAAMBoUIdjX0gqT6olm+8NF8ocxS8vaVNh2QYxZ7y4A0IaFJfQBhBiytAFWDYCsL2YF+cOYpWVtKmy7IMasdxcAaMPCEvoAQgxZ2gCrBkDWF7OC/GHMErI2R77IDcYsITcAWcBgin0tbYCdo0hJhfxhzBKyNke+yA3GLCE3AFnAYIp9LW2AnaNISYX8YcwSsjZHvsgNxiwhNwBZwGCKfS1tgJ2jSEmF/GHMErI2R77IDcYsITcAWcBgin0tbYCdo0hJhfxhzBKyNke+yA3GLCE3AFnAYIp9LW2AnaNISYX8YcwSsjZHvsgNxiwhNwBZwGCKfWWAHQ7yhzFLyJoaAFlfnARygzFLyA1AFjCYYl8ZYIeD/GHMErKmBkDWFyeB3GDMEnIDkAUMpthXBtjhIH8Yk6yFITcYk9wAJMJgin1lgB0O8ocxyVoYcoMxyQ1AIgym2FcG2OEgfxiTrIUhNxiT3AAkwmCKfWWAHQ7yhzHJWhhygzHJDUAiDKbY19IG2OqJMkUoFmlpWZsKcoMxyQ1AIgym2NfSBlg1ALK+mBXkD2OWlrWpIDcYk9wAJMJgin0tbYBVAyDri1lB/jBmCVmbI1/kBmOWkBuALGAwxb6WNsDOUaSkQv4wZglZmyNf5AZjlpAbgCxgMMW+ljbAzlGkpEL+MGYJWZsjX+QGY5aQG4AsYDDFvpY2wM5RpKRC/jBmCVmbI1/kBmOWkBuALGAwxb6WNsDOUaSkQv4wZglZmyNf5AZjlpAbgCxgMMW+ljbAzlGkpEL+MGYJWZsjX+QGY5aQG4AsYDDFvjLADgf5w5glZE0NgKwvTgK5wZgl5AYgCxhMsa8MsMNB/jBmCVlTAyDri5NAbjBmCbkByAIGU+wrA+xwkD+MSdbCkBuMSW4AEmEwxb4ywA4H+cOYZC0MucGY5AYgEQZT7CsD7HCQP4xJ1sKQG4xJbgASYTDFvjLADgf5w5hkLQy5wZjkBiARBlPsa2kDbPVEmSIUi7S0rE0FucGY5AYgEQbT3b3itz61uuOL317d+NEHgrenqvWcetvntja0zjEsbYBVAyDri1lB/vLzl954x+qJp763uvv+765e+brz6+vOvOOu1a+85bMby45taVmbihxyc+vtj67uffip1XV/eE/w9n2T3AAUyNSDqQaKr37jLzYGzlBRm6INNqmG1uH66us+E7xfl/pAEL/3sQeDt6do69iWa2+8EFzv0JY2wKoBkPXFrJgifyVnLrR8X2PP95obvrB6+pnvr27+xEPNctpez33v+SZPas4fefyZ1bPPPb/6td/+s4vuP7YlZG2OfE2Rmy7vuu+J1Xee/MvVz119W/D2bdT++P3n/2r1gbNfW1+27H78099Iyl3XgSQto304dFtIf/0muQFYCFMPpjoycOeXv7MuWm1gs8GiL+4A3DWwveG9F9ZqgI1x4cEnkwbbkLs2Au/60H2tj6/b2j5wbECeaqAtbYCdo0hJZYr8lZq5bZ+jS1cBoszqNblHK0N50nPRt31a31TNtiwha3Pka4rcxLR9c5fPi5DWBNg+ZoV16mdK14Gkd9xy33p9KcSyQ24AFsJcg+kNH3lgPdjd/8jTq9NVkaIBNTTQ2aB4dNdj0cG2a/BrK6BNG9T/5LPfDN4utUyo2HG104JCt8nYUU+agHGYo0hJZcr8lZg5Xz1m2/J9c2CP728DreexJ54LPvepC5oSsjZHvqbKjfal0Dh+9bvvXhfTaqpDt5t9v1m27PlNQOr+5u77fh60v7t5Vpb8z5tYvkxyA7AgphpMQ+oI5Sc/99jqF67909aCZNuvXHW/tsFMBbUGpLfe/OXmuraBzVX325XYkSOagHGYo0hJZer8lZY53yGbAK0r9DpjOZSHn3+MrDnMka+pcrPrmN9VUPvu2gS4hor8rttTmgByA7AgphpMY7rFgP5tR1HsVILQkfXYEZaugTM0iKUMtrFCfAhjg2jssWkC4sxRpKQyV/5KyZxvrEjpkwMrtkJHctXMKIf+9W2G1j+UJWRtjnzNlRuzrRDuoxryN73vSxddl9oEaB9vK7ZlSoOt19C3CSA3AAtj7sFU+gWJ/t1FV7Guo45txUBo8MupCdCpGv6AqVM59Nih297+wXtpAiLMUaSkMlf+Ssmcb6xISW0CUl9vCrHXPIQlZG2OfM2VG2n7T9+j/L6hb9xSmwDdV/veNb/7hYuuN1M+q/o2AeQGYIFMOZjqvECdj+zPUhIqSNqOYKQUDnZEou1IiW73B7qUAiI2sNppFm2PqWI9dL2r1r8tYw+qrgywwzF2/krPnO8QTYDUMqFvNvwibG5LyJoaAFlfnISxc6P9wz/YYtq3ZTq1LXR7m/5j2L7m5s7f/0LZs+u6inWt1318f3/v2wRIcgOwMMYeTH3dHyfazAKhgkRTpLkDmGk/yGobbNyB1b2fO9CpIPELHt1vlyYgNKD7t+m+sTmTtf62QqrrsfsWU7vIADscU+Sv5Mz5DtUEtKn1dx1BndISsqYGQNYXJ2Hs3Gg/GJK2cd1vni1LsSbADha15VHrDOHnZpsmoE1yA1AoYw+mIVV06AilFQWhgqSL0AAYu2/osdz7xopss2sZDb6h2zVAphyppwnYP6bKX2mZ077sNhSmMqYiJXSbnRanbz1Ct/uP4WvPs239rqH7jyFZCzNVbnzdfSR0e1+VAWHZ6moC7PHbPifc5sV9jlbc6/62D+u8fq3HPcVU1/n7v7v+kOQGoGD+3mWvW/3kv3xjMEhTaYOIW5D4BYMZOzXBBkC3sLD1+YOq/1Wuf859VyGu5TVgurfbAO4+d3eAdJcNWVIT8JIr361/n917D45uOXFw+Ppt/fv/+n+ufuxlv7Gxjcc298y5xcwQtOXK1fLbRcq6hlJZe+mrbwretu/+s9/4RPD6MfWL9F21bNjnQ1cTEHt85U6Nvj6XrFm226wJ6JurlINXueaGJgAgwsuvPfuDJ04fvvOnf/m9qx++5MpgkKYyVJD0PTVBBYURK0hSB6xQQeQW4v4RHLPr692Y1gSU8MPgF73kVasTZw4v3XcvO33uilBxn6qagBe/9FeD23lMS8mcq623raHW4+ySAz+7vn2yPJQUM2Fsu4S22ZiqiHb39SF01+nvY34T0LWPmlb0t1226/x1hZbrktwAFMY/P33+J6oG4M6TVx29Zs7B1D703YHOPui7cAcUfejrL6JqILJiua0g6dKW72oCdFmvwf9A8JuD0EDbpt13G/hhcJlMmb8SM+fatdwuTYCypwz95rvuXj9GqBBKLcCGlKyFmTI3pmVG+0CoWfZN3U+sSNZ+HWsC/M+WmH4x71+Wof05tFxMcgNQGCr81QCoEdDlOQZT+zC3ASP24e0fCelSg9IQBUloea3bHczsubkDn/va+j73WMPgvy7XXYqfbSxtgK2e6N5PEVpq5ly7nte2ObD1WnNhhY27ntB1U1ha1qZiqty4WoGeQldD62r7n8Z+m3nI9nG7TafSKSOpxXRXE+CPB23LxSQ3AAXx8lNn/8b6/OXTh+/UqUD11bMMpv7AoMtuEaHBVtNtaiYT/4Nfg6StJ6S/LrfA0L9DR2xMDa7+47mGivTQIGf/jhX1IWNHTPzX5UoTEEcNgKwvZsVU+Ss1c66hrLlukwN7rn7ulEW9Jm0PK/76FHZDWVrWpmKq3PTR9uM+Y76p8/hV6Nu+Zlmwdd78iYdWX/3GX3RmxOxqAtoyl9oEkBuAgjh5cPizJw4OL+j85fqqhqkHUxs8/AHKHUw0kOjDXrN8uIOVioCuoyxWkNi58zqf2QoSrTeGnlOsINH9/QGybTC061MH7dB2cfULLddtip9dLG2AVQMg64tZMUX+Ss6c2ZYz1745sHWGcmW3aZuokGnL5diWkLU58jVFbvqqfb1tjE61rQlI/RwxrZi3Zttm/bHbldlQQ53SBJAbgIJY/wDx9NFtL3/t2R+qr7qIqQdTf/CxQc6KjK5BUIOU0FETXfa1osUndRBtKyT85+mqxzy66+I/FGaFUeoHgv+6fWPr61v87GppA+wcRUoqU+Sv1My52mPE1tknB/rjfn/+7WeDhZBpr1vc+NEHgsuMbQlZmyNfU+TGVZnQkXgdkQ81oSn7Z4pdWUzV3XcNK8itUA8V6F1NALkBKAQV/Sr+1QTUVwWZcjC1wcc9mqcBwwYUG/DcQSg0CNrRxdDA6BfL9pixI5mubYWEX0jF3Gbg1naINQ3+63LtU/wMYWkD7BxFSipj56/kzLm3pxxVTM2BFSlteXYLHTU++uGzHj/0l5fHtoSszZGvsXPjq31CP4Q37n34qfU3X7rN9s/U/T2mrctyts1nidQ+7uZF+bXLbv7tdtO/n3+bIDcAmVNPW3hBpwHVV7Uy5WDqHy1xP9xtAPEL3dAgGCpszFBBctvdjycPQqFi2388DYD2NWtIDZYa+ELTeUr/OacUOXpebYNvavEzlKUNsHMUKamMnb9SM2fa82273TU1B3p+7z/7tY2Ma6pdbQ+h0yfc1+kXgfrmT68vlOchLSFrc+Rr7NzEdPcTIzZ2+2pf8z8TTK1b+7uKaF226XntcsjQ/ucW/fKWw6+vv8WwHx63NSyxJoDcAGSOzf2vHwDrh8D11VGmGkw1WLhFhBUaVtjq9g+ff6QpPDSw3H7hW6vP3xs+Aqn7hAYRG2D962P+zge+sn6sx594bv1YfqGjP8Ai9Bzsee+COwBrfRpA2wr8NvU6VWjpeW9z/10sbYCdo0hJZcz8lZw5aUcSU/ftvs2wnrcKFHsOQkWKftQYWl5q3TYeGP52GtISsjZHvsbMTaq2L2gfFe63AzHtW7WhCBXt2rdffd1nLrpOjYCeayhrZqwJMMkNQIa4c//XVyUx5WCqowJvet+Xmsv6kG87Z9AKlkcff3bj6MLQalBTsfTwN59ZH3FxH0u3qVDSc3DvM5S2/m3OnbQPE3veoWXGsLQBdo4iJZWx81di5kw1Jbo9tajXNwp9lpd2n7ZzvWO+5eZ7Vn/wx18N3jaUJWRtjnyNnZu+KldWFE95QCZV5U1F+N33fze6n+szJdYkmOQGICP8uf/7kNtgivnLADsc5A9jlpA1NQCyvjgJueZGjes9Dz3ZeeoajmsJuQHYmfXc/6ePbvLn/u9DroMp5isD7HCQP4xZQtbUAMj64iSQG4xZQm4AdmI99//pwzsvOzh3ZX3VVjCYYl8ZYIeD/GFMshaG3GBMcgOL5uRVh1dr+s9XnLrtxfVVW8Ngin1lgB0O8ocxyVoYcoMxyQ0sEs39X+3gZ0+cOXpzfdXOMJhiXxlgh4P8YUyyFobcYExyA4vjxMG5V2ru/xNnDi+trxoEBlPsKwPscJA/jEnWwpAbjNnkxv6By7QeDxbN8dz/R9dXO/atqXP/98G2pR8ixDZLy1/1RPd2ilAs29KyNhXkBmM2ubF/4DKtx4PFcjz3/9FtJw8Or6qvGhzblqEgIYYsLX9qAGR9MSvIH8YsLWtTQW4wZpMbdpRl2rzBC+by00ev0uw/l586uqS+ahTICPa1tPypAZD1xawgfxizhKzNkS9ygzGb3LCjLNPmDV4gNvf/yYPz79l27v8+kBHsa2n5m6NISYX8YcwSsjZHvsgNxmxyw46yTJs3eGEMNfd/H8gI9rW0/M1RpKRC/jBmCVmbI1/kBmM2uWFHWabNG7wghpz7vw9kBPtaWv7mKFJSIX8Ys4SszZEvcoMxm9ywoyzT5g1eAGPM/d8HMoJ9LS1/cxQpqZA/jFlC1ubIF7nBmE1u2FGWafMGF85Yc//3gYxgX0vL3xxFSirkD2OWkLU58kVuMGaTG3aUZdq8wYWynvv/zNGbq9cyytz/fSAj2NfS85cT5A9jlpA1NQCyvjgJ5AZjNrlhR1mmzRtcIJr7v3oNZ/UbgPqqWSEj2NeS85cb5A9jlpA1NQCyvjgJ5AZjNrlhR1mmzRtcGMdz/6//+NfP1lfNDhnBvpaavxwhfxiTrIUhNxizyQ07yjJt3uBCWM/9f3D+Peu5/2c+/ceHjGBfS8tfzpA/jEnWwpAbjNnkhh1lmTZvcAEcz/1/dJu+Baivygoygn0tKX+5Q/4wJlkLQ24wZpMbdpRl2rzBmaPz/qvne1a/A6ivyg4ygn0tJX8lQP4wJlkLQ24wZpMbdpRl2rzBmVLP/X+rZgDSTED11VlCRrCvuefPp3qiTBGKRVpa1qaC3GDMJjfsKMu0eYMzZD33/+nDO/X/+qqsISPY15zzF0INgKwvZgX5w5ilZW0qyA3GbHLDjrJMmzc4Iy6a+/+1Z3+ovjp7yAj2Ncf8xVADIOuLWUH+MGYJWZsjX+QGYza5YUdZps0bnAm5zf3fBzKCfc0tf13MUaSkQv4wZglZmyNf5AZjNrlhR1mmzRucATnO/d8HMoJ9zSl/KcxRpKRC/jBmCVmbI1/kBmM2uWFHWabNGzwjOv0n17n/+0BGsK855K8PcxQpqZA/jFlC1ubIF7nBmE1u2FGWafMGz8Tlp44u0Y9/c537vw9kBPs6d/76MkeRkgr5w5glZG2OfJEbjNnkhh1lmTZv8AycPDi8Sqf/5Dz3fx/ICPZ1zvxtwxxFSirkD2OWkLU58mXbBTEmA+xCbd7gCdEpP9Vj31o1ANfnPvd/H8gI9nWO/C0V8ocxS8iaGgBZX5wE2y6IMRlgF2rzBk/EiTOHl544OLxQytz/fSAj2Nep87dkyB/GLCFragBkfREgHxhgl+mUA2M99//Zkub+7wMZwb5Omb+lQ/4wJlkD2AEG2GU6xcD4ilO3vXg99WeBc//3wbYlYl/rXQh2ILRdEX3r3QUA+mABChWSWK5jD4yXHZy7UrP/lDr3fx9sWyL2td6FYAdC2xXRt95dAKAPFqBQIYnlOtbA2Mz9f/roppLn/gcAAADYa2gClukYTcCS5v4HgBeoBgp+uAgAsG/QBCzToZuApc39DwAvQBMAALCH0AQs06GagKXO/Q8AL0ATADAe5AuyhSZgmQ7RBOhHv0ud+x8AXoAiBWA8yBdkC03AMt21CaiK/9fr9J+lzv0PAC9AkQIwHuQLsqXEJuCK3/rU6tTbPtfLV77ufHBdS3XbJkBFv4p/NQH1VQCwcChSAMaDfEG2lNgE3Hr7o6u+/Mlnvxlclww1DV2G1pOT2zQBl50+d4VO/9mHuf8B4AUoUgDGg3xBtuTaBPzab/9ZsPg2Q/dRc/CdJ/9y9XNX3xa8PeQ1N3xh9f3n/6puFdJ49rnn188vtL5c7NME6Ae/J04fvvPkwdEtzP0PsH9QpACMB/mCbMmxCdDpPo88/kxdcm8SOqpv97nw4JO9Tv1RE/D0M99PLuq1/GNPPNer0ZjD1CZAU36u//LvVUevqa8CAACAgaAJgGzJsQlwteL+9z72YPB285feeMfque8937mc7z43ASr81QAw9z8AAMA40ARAtpTcBLinB93wkQfWp+lc94f3XHS99O/nuo9NwHru/4OjW3QKEHP/AwAAAOwhpTYBKsZTzuXvOn/fmoBQ8xDy7R+8t+gmwOb+14+A66sAAAAAYN8otQnQ6T9PPPW9zgK/q2BPbSZc+v74eA5DTQBz/wMAAADAmiU1Afq3jtbb5dQmYOmnAzH3PwAAAABcxJKagLvue2J9lN6uown4+RVz/wNAFyt+uAgAsH8srQlwpwjd9ybgH/7CO1bM/Q8AXdAEAADsITQBy/1h8E//8ntXJw7OvbJ+qwEAgtAEAIwH+YJsKa0JuPrdd68L9iGbgKX+MPhFL3mV/n3ryYPz7+HHwADQBkUKwHiQL8iWUpqARx9/tinW1RC0NQHuXxPu803AEk8HknqPLz999Cr9LkD/X7/pAAAOFCkA40G+IFtybAJU+B9+/rHV41Wxbdz/yNPrbwBsGb8JCJ02RBPwwhShx38g7Px7qttu5S8EA4ALRQrAeJAvyJYcmwB56+2Prv/Q182feKg5vcfVbwJUnOubgmtvvNAsk1Lg70sTYOg3AidOH9558qrDq+urAGDPoUgBGA/yBdmSaxPQpV/02/Sgv/iGO1Zvet+XmmU++bnHVr/yls9edF/XfWsCxMuvPfuDJ84cvXndDDB1KMDeQ5ECMB7kC7Kl1CbA9V0fum99ypBOBbrji99e//vjn/5G8BsEX2sCljg7UFsTYFx+6uiS9R8RqxoCphEFAAAYHpoAyJaSmwD9DkDFvrBZgULXhe5r2jcKfdBpSqnfHMxlShNg6NQg/XCY6UQBAACGhSYAsqXEJkCF/ofPP9IU76Gj/jd85IH17V0F+zanA/VZfi77NAFCU4hW97u18iamEwUAAABYOCU1Af5Re3/GIF9bXo3AW2/+cusyfYp6LXf9+7+SdKrRnPZtAozLDs5dyXSiAAAAAAunpCZAatagex9+anX6HXcFb/c9Uy2nHwfnXrQP7bZNgHCmEz3LdKIAAAAAC6S0JgDT3KUJME6cObyU6UQBAAAAFghNwDIdogkQzXSiB4cXmE4UYJlUAwU/XAQA2DdoApbpUE2AodOC1tOJnj66nulEj7FtjNhmvatkT0lNQGg7I/rWuwsAxLDAhApJLNexBsKTB4dXMZ3oMbaNEdusd5XsUQMg64tZE9rOiL717pIFc+QrtE0QfWkCFmrzBo9AM53owdEt+zydKNnBNsfM3xjMUaRsC7nDmDlmb4582XZAjMmAulCbN3hELjt97op9nk6U7GCbU+RvSOYoUraF3GHMHLM3R77ICcZscsKOskybN3hkbDpR/V5g36YTJTvY5lT5G4o5ipRtIXcYM8fszZEvcoIxm5ywoyzT5g2eCM0cZNOJakah+upFQ3awzanztytzFCnbQu4wZo7ZmyNf5ARjNjlhR1mmzRs8Ic10omoG9mA6UbKDbc6Rv12Yo0jZFnKHMXPM3hz5IicYs8kJO8oybd7gGXhhOtHDdy55OlGyg23Omb+lQ+4wZo7ZUwMg64uTQE4wZpMTdpRl2rzBM3LyqqPXLHk6UbKDbeaQv6VC7jBmjtlTAyDri5NATjBmkxN2lGXavMEz00wnWrm06UTJDraZS/6WCLnDmGTvGHKCMZucsKMs0+YNzgR9G6BvBfTtQH1V8ZAdbDO3/C0Jcocxyd4x5ARjNjlhR1mmzRucEfp9gH4nsJTpRMkOtplj/pYCucOYZO8YcoIxm5ywoyzT5g3OEJtOVDMJlTydKNnBNnPOX+mQO4xJ9o4hJxizyQk7yjJt3uBMUfGvvylQ8nSiZAfbzD1/PtUTZYpQXISlZW8syAnGbHLCjrJMmzc4c2w6Uf3V4dKmEyU72GYp+TPUAMj6YtaQO4xZWvbGgpxgzCYn7CjLtHmDC+Hy00ev0g+HLzt97or6quwhO9hmaflTAyDri1lD7jBmjtmbI1/kBGM2OWFHWabNG1wQ6+lED45uqZ5/EdOJkh1ss7T8zVGkbAu5w5g5Zm+OfJETjNnkhB1lmTZvcIE004keHF5VX5UlZAfbLC1/cxQp20LuMGaO2ZsjX+QEYzY5YUdZps0bXCjH04keXZ/zdKJkB9ssLX9zFCnbQu4wZo7ZmyNf5ARjNjlhR1mmzRtcOOvpRA8OL+Q4nSjZwTZLy98cRcq2kDuMmWP25sgXOcGYTU7YUZZp8wYvBJtO9MSZw0vrq2aH7GCbpeVvjiJlW8gdxswxe3Pki5xgzCYn7CjLtHmDF4ROC6pe29lcphMlO9jmEvOXC+QOY+aYPTUAsr44CeQEYzY5YUdZps0bvECa6UQPzl1ZXzULZAfbXHL+5obcYcwcs6cGQNYXJ4GcYMwmJ+woy7R5gxfKejrR00c3Vc42nSjZwTaXnr85IXcYk+wdQ04wZpMTdpRl2rzBC6eZTvSqw6vrqyaD7GCb+5K/OSB3GJPsHUNOMGaTE3aUZdq8wXvAejrRM0dv1nSil586uqS+enTIDra5T/mbGnKHMcneMeQEYzY5YUdZps0bvEespxNdzyA0zXSiZAfb3Mf8TQW5w5hk7xhygjGbnLCjLNPmDd5DmulED869sr5qFMgOtlla/qonyhShuAhLy95YkBOM2eTE/oHLtB4P9o56OtFbx5xO1LaxHy7E0vKnBkDWF7OG3GHM0rI3FuQEYzY5sX/gMq3Hg73FphPV/+urBsO2cShguN+Wlj81ALK+mDXkDmPmmL058kVOMGaOOQEYhfV0ogfn31Pt+INOJ8ogi22WNsDOUaRsC7nDmDlmb458kROMmWNOAEZFvxGodv77h5pOlEEW2yxtgJ2jSNkWcocxc8zeHPkiJxgzx5wAjI5mDbLpRDWbUH31Vkw9yF7xW59a3f/I06u33vzl4O2lqNdxxxe/vbrxow8Eb09V6zn1ts9tbWidQ1naADtHkbIt5C4/f+mNd6yeeOp7q7vv/+7qla87v77uzDvuWv3KWz67sezY5pi9OfI1dU6wLHPMCcBkHE8nenTbLtOJTj3IXnPDF1bff/6vVr/3sQeDt/uqeHn7B+9d/e8P3x+8PcVQ8ez66us+E7xfl7fe/uhKpL6WkLaObbn2xgvB9Q5haQPsHEXKtpC7eO5Cy/fVCvmQ2h5PP/P91c2feKhZTk3Ac997vsmUtsEjjz+zeva551e/9tt/dtH9xzbH7M2Rr6lzgmWZY04AJmc9nejB4YVtphOdepC9674nVt958i9XP3f1bevLtxx+ffWho6+vrn//V1YfPv/I6vYL31r78DefWRctLn4Bow/m0Ie/+Yb3Xljrr8fnwoNPRguGmLs2Au/60H2tj6/b3G3lakXMmMVJaQPsHEXKtpC79txZ8b0LXYW7cqvt4R7lD2VKz0Xf+Gl9Yzbcvjlmb458TZ2TqdQ+dXTXY1t/7uCxOeYEYBZeceq2F1eh6D2d6JSDrB1pc4sKK6JVfNz78FPrQuTz9z6xLiA+/ulvrE6/467WI4ZdR9HbCmjTio0/+ew3g7dLLRMqdFzttKDQbTJ2xJMmYD8hd/Hc+eox25bvmwV7fL+50Xoee+K54HOfuhHIMXtqAGR9cRKmzImv9gfl4QNnv7a+rBx99Rt/sc7HLsW7rXfbA0epKjOPPv7szqesdjX9IadqbnLMCcCsaBrRKhz3p04nOuUgq0HJLxBCH+7+1/Kp6mhnW6Ggglof4u450W3FgKvutyuxbxpoAvYTchfPnW/o+Zp9sxDaHjKWRXn4+cdGzZtrjtlTAyDri5MwZU58rVi3PISa6W1UXvT7HDXaoQLaNXT/VLWfd30jlqLW04chHjPVHHMCMDv6JsCmE9UfHKuvDjLVIGsDqv8hO1Qx0nWf0Ad/yuPECvEhpAnYT8hdv8cJPV+zTxZse+horl9wqTjTdvKvbzO0/qEke8dMlZOQtq/YfrrNfuur/TiVtv09VT3WEAV5V3Psqm3W9m3aGJITgAj6jcCJ04d3xqYTnWKQtSN/YqxiRANVbMDT4/iPnfI4UzUBoaNCN3zkgfVjh27TjzZpAsqF3E3fBLjbY1fGPtpJ9o6ZIidtDt0EKCtC3yS07TuajUqP4WdmG5UZmgCAPeeF6USrZiAwnegUg6yOsGkw+uinNguCWDHS52tXO4rXNlCFTllIKR5iTYAG7E9+rv3HXSrWQ9e72gfDNlCIlAu569fADtEESC0T+q2DX/DNLdk7ZoqcSI3lb3rfly66zt8n2poA7VNt+7+pAzpal/ZhK/T96Xrt8VIL7i6HbgJSTl/SwSmaAIAMufzU0SWh6UTHHmT1gzqhwiJ0RME+3N2B5Op3370+YqcfZLnXy9DgaIOnHqNtWRUjfnGTUjzEmgD3cdtu031j84yHtol7W+yx+xZSfWWAHQ9yN08T0KbW35a1OSR7x4ydE1P7qf/+2/7d1QToviq2r/ndL1x0vdS3Tzr1TLgZVFMgLBvWJLR9FmyjnpfYtbFVNvow9sEpV3IC0BOdGlSF536bTnTMQVYDoKYftD++01aM9MEvBGJf8dsAa8v4xUisyDa7lgl9eEi9rpTBMLRN3NvaHpsmYJPqiTJFaGXJudP+7DYUpnLmNy2mnRp33R/eE7zdfwxfe55t63cN3X8MS8veWIyZE1e3ofWvizUBdl1bgyo1XW7oG2Mr/A01C+7tu2pNgJ+/JUlOALbg5a89+0NVgNbTif7df/RvJxlkZVsxEhpA7UPfv97Xihm3qLAPdX/w1tev7ge6f859VyGu5f2BOvTh4RYV7rIhQ9vEvY0mIB01ALK+mDW2bUPbfWhLyl3f5qSLtmy5Woa7SFnXUJaWvbGYMifa9933OKUJULaEe12qal79JmCo/cuyKFLy3GZbU57iFFkhJwA7oGlE/+mv/tHqxy89CAZsaPsUI7q+60NXxYQRK0ZSP+RDR0zcQrxtwO/68Ihp2yTXHwa/9NU3BW/D3Txx6pOrH/mZ/xi8bWhLzJ1rV1Otx9klC35+ffvkeSiVvZdc+W79+2ynB0e3nDg4fH2SZw4vTTH0F+jnaLKtyKte5+j647v/vvtNgO2XXXnx1dj9599+dv1YKvx/4do/XX9zZ1nRHxHTmB+6b6pu9tyM9nXbpnyqU4Js/6h3FwDoyw9fcuXqR//xfwkGbGj7FCNaNjZ4aYC588vfWa/PiuW2YqRLW76rCdBlPV//efkfHimFlGn33YaxB9rSBtg5ipRtsW0b2u5DW2LuXLuW26UJ0OtVjn7zXce/hwhtk64mYQy1b7zoJa9ahQp038tOn7siWPAHrNYdbiR8D46eqf4ffG6u1TovVP8Pr+Nib/KfS8iTB4dXua/tx172GytZ3X90/VN7upqAPs2h9k230Ncf6PN/K6b93F1G6I/56VQi/WVv/4fLMW2//uC5h5OfY8jQ2NFl1xgypKV9RgFkR67FSOir1zb9QWfbYiS0vP+c/Q8KaffXdX2et4w1DLHBdJfCJ9XSBliagLAl5s616zltmwVbrzUXej1+Yx26bgpzzF4oX/o7NG7R3uZlB+euDBX9G54+ur56/U3zoG8ip/w2UrmwfbqrCYg1h9q3VdDrLwy76Ci/Ff9a3z0PPbm6+RMPbaxDP9JXs+02BF3Nsquem17HL77hjnXG2p5nl6GxQ9q20Rji3+aPC2OaY04AisJCFArY0IYGlLZixC2s/dt8/UHHLS70b/9UGlc9l1iRESrSQ4WB/TtW1IeMfZDEBlOagE1CRUqukLt47lxDeXPdJgv2XP3tYsWTCjUrdPoUX0OZY/bmyNeUOZHue27/tv3T3V+1T4rYvmv311F//Wjdv93W15U17df6JiD1M8Xfb1Oea5uhsUP628bVHxfGNMecABTFlINsaEDxixENLjbVmm5LGUxs0LFz522qQw1Q+lCPoceOFSO6vz9ItxUQbhHkLt+mLd/2IRAbTLWdaAIuZo4iZVvIXdq3Zm1Zc+2bBVtn6DXabWo6VOS0ZXNsc8zeHPmaMifS9kntb5rVJ9QE6IfuXftkirY+Feva79wmWYb+nkWKyp7bNLuvqe/zDY0ddn3bGBG7bWhzzAlAUUw5yHYVI3Z0wY5guIOkLmugDA2MWm+I1GK8rYjwH99Vj6mvdt3X0nfws9fb9jxj6+tb+GxjaQPsHEXKtpC7tH3YHiO2zj5Z0B9q0o8yY98saNsYN370geAyY5tj9ubI15Q5MfVjXRX6/vhsudDpOzrNJ3U/b8tJF9sU7fac/ebVnkPfpjY0dkg1Gm3PT/ehCQAohCkH2dCAYsWIfmToFiLu7Tag+IOy6Q86djQvVLyHbCsitN5YseBqHxCpHwzSfW2h22ODaZ/CZ1sZYMeD3HXvw/a4XYVLahb0mkRbpt0GQUWgbZv7H3k6eDrHmOaYPTUAsr44CVPmxNff77cZ400d2fcL5rbx33LUt2C359f2mWHfzqXmU4Y+g/ztotdmt8nY59bQ5pgTgKKYcpBtK0YMffDaAGjL2cCmAVFHaEKDS6gYue3ux5M/uEODlv88VDS4X9X66nWoWAhN5yn9D4CUAkfPq61gSS18dpEBdjzIXTh3puWj7XbX1Czo+b3/7Nc2cu5P2ehuJzUG+oGmoW//7I+S+Zke0hyzpwZA1hcnYcqc+PrF7i5NgK/lLTT+2219inU9t65vuOz5i9R133L49fVvGtyMu+OEbSO3UVaudZ8xP5vMHHMCUBRTDrJ+MWIDij9wuQWILttAI9oGTX0o+9fH/J0PfGV1+4VvrR5/4rn1ev0i6Y4vfnt9vQZ8d/DcFnfQTRmwQ+p1qsjS897m/n1lgB0PchfOnbQj8Kn7d2oTYOp5q7C35yDcWVtCat02JhhDFINtkr1jpsyJ75hNgJrwtv3bHqfPN2qpeXEz3afJkGqINW74jbnbKOs56KCCn+mxJCcAOzLlIBv6+lMDSOjDV8WCBhO7rOU05/FQg4sVQpqH2R+0dJumd9NRQfc+Q2nr3+Z8Y/tK1553aJmhZIAdD3K3mTtTR+Z1e2pRryanz/LS7hOanrHLt9x8z+oP/virwduGkuwdM3ZOtD/at7W+9hd9tZ/qsn74ruLcLodM2ZfsW7i2ItxvPtr0i+/U/d9tBNSEx5pfqfWqAdZ9dMS/bXlbTkzVDJATgB0Ze5DFcmWAHQ9yhzHJ3jFj56RrFqu+hL4xM93TztoaADUlek6x0+C0zIUHv7tej/BPYUtRDYQ9FyvY3du1TjXJhpZJbZjd5iT0Td+QkhOAHRl7kMVyZYAdD3KHMcneMaXnREfd3T8YFvqReeh0065TdbTe0F8d7qOaCR25D33jrfXrFDv7DYx/e4pqera9b6rkBGBHSh9kcTxLG2CrJ8oUobgIS8veWCwhJzqyr4Jdk0aEbpf6Aa5+K/O2/3vv6KfQLElyArAjSxhkcRxLG2DVAMj6YtaQO4xZWvbGgpxgTHICsCMMsthmaQOsGgBZX8wacocxc8zeHPkiJxgzx5wAFAWDLLZZ2gA7R5GyLeQOY+aYvTnyRU4wZo45ASgKBllss7QBdo4iZVvIHcbMMXtz5IucYMwccwJQFAyy2GZpA+wcRcq2kDuMmWP25sgXOcGYOeYEoCgYZLHN0gbYOYqUbSF3GDPH7M2RL3KCMXPMCUBRMMhim6UNsHMUKdtC7jBmjtmbI1/kBGPmmBOAomCQxTYZYMeD3GHMHLOnBkDWFyeBnGDMHHMCUBQMstgmA+x4kDuMmWP21ADI+uIkkBOMmWNOAIqCQRbbZIAdD3KHMcneMeQEY5ITgB1hkMU2GWDHg9xhTLJ3DDnBmOQEYEcYZLFNBtjxIHcYk+wdQ04wJjkB2BEGWWyTAXY8yB3GJHvHkBOMSU4AdoRBFtssbYCtnihThOIiLC17Y0FOMCY5AdgRBllss7QBVg2ArC9mDbnDmKVlbyzICcYkJwA7wiCLbZY2wKoBkPXFrCF3GDPH7M2RL3KCMXPMCUBRMMhim6UNsHMUKdtC7jBmjtmbI1/kBGPmmBOAomCQxTZLG2DnKFK2hdxhzByzN0e+yAnGzDEnAEXBIIttljbAzlGkbAu5w5g5Zm+OfJETjJljTgCKgkEW2yxtgJ2jSNkWcocxc8zeHPkiJxgzx5wAFAWDLLZZ2gA7R5GyLeQOY+aYvTnyRU4wZo45ASgKBllskwF2PMgdxswxe2oAZH1xEsgJxswxJwBFwSCLbTLAjge5w5g5Zk8NgKwvTgI5wZg55gSgKBhksU0G2PEgdxiT7B1DTjAmOQHYEQZZbJMBdjzIHcYke8eQE4xJTgB2hEEW22SAHQ9yhzHJ3jHkBGOSE4AdYZDFNhlgx4PcYUyydww5wZjkBGBHGGSxzdIG2OqJMkUoLsLSsjcW5ARjkhOAHbEQIbZZ7yrZowZA1hezJrSdEX3r3WVvse0QKgARyQnAjliIENusd5XsUQMg64tZE9rOiL717pIFc+TLtkOoAETMMScAADADcxQpAPvCHPmyIg8xZr27AADAvjJHkQKwL8yRr1DBh+hb7y4AALCvzFGkAOwL5AsAAACyhCIFYDzIFwAAAGQJRQrAeJAvAAAAAIA9gyYAAAAAAGDPoAkAAAAAAAAAAAAAAAAAAAAAAAAAAAAAAAAAAACAweCHiwAAAAAAewZNAAAAAADAnkETADAe5AsAAACyhCIFYDzIFwAAAGQJRQrAeJAvAAAAyBKKFIDxIF8AAACQJRQpAONBvgAAACBLKFIAxoN8AQAAAADsGTQBAAAAAAB7Bk0AAAAAAAAAAAAAAAAAAAAAAAAAAAAAAAAAAAAADAY/XAQAAAAA2DNoAgAAAAAA9gyaAIDxIF8AAACQJRQpAONBvgAAACBLKFIAxoN8AQAAQJZQpACMB/kCAACALKFIARgP8gUAAABZEipS7Lo268U28JfzrRfbwF/Ot15sA38533qxDfzlfOvFNvCX860X28BfzrdebAN/Od96sQ385XzrxTbwl/OtF9vAX863XmwDfznferEN/OV868U28JfzrRfbwF/Ot15sg5RlAAAAALLBLV5C1ott4C/nWy+2gb+cb73YBv5yvvViG/jL+daLbeAv51svtoG/nG+92Ab+cr71Yhv4y/nWi23gL+dbL7aBv5xvvdgG/nK+9WIb+Mv51ott4C/nWy+2gb+cb73YBinLAMzDD/zA/wdBK1sJj/hVwQAAAABJRU5ErkJggg==;" vertex="1" parent="1">
          <mxGeometry x="100" y="150" width="769" height="345" as="geometry" />
        </mxCell>
        <mxCell id="uDqeAKN0CxZrEolLGgEj-2" value="项目" style="rounded=0;whiteSpace=wrap;html=1;fillColor=#0050ef;fontColor=#ffffff;strokeColor=none;fontSize=16;" vertex="1" parent="1">
          <mxGeometry x="120" y="630" width="120" height="60" as="geometry" />
        </mxCell>
        <mxCell id="uDqeAKN0CxZrEolLGgEj-3" value="低码应用" style="rounded=0;whiteSpace=wrap;html=1;fillColor=#0050ef;fontColor=#ffffff;strokeColor=none;fontSize=16;" vertex="1" parent="1">
          <mxGeometry x="310" y="710" width="120" height="60" as="geometry" />
        </mxCell>
        <mxCell id="uDqeAKN0CxZrEolLGgEj-4" value="" style="rounded=0;whiteSpace=wrap;html=1;strokeColor=none;" vertex="1" parent="1">
          <mxGeometry x="310" y="570" width="120" height="60" as="geometry" />
        </mxCell>
        <mxCell id="uDqeAKN0CxZrEolLGgEj-5" value="源码应用" style="rounded=0;whiteSpace=wrap;html=1;fillColor=#0050ef;fontColor=#ffffff;strokeColor=none;fontSize=16;" vertex="1" parent="1">
          <mxGeometry x="310" y="570" width="120" height="60" as="geometry" />
        </mxCell>
        <mxCell id="uDqeAKN0CxZrEolLGgEj-6" value="低码开发" style="rounded=0;whiteSpace=wrap;html=1;fillColor=#0050ef;fontColor=#ffffff;strokeColor=none;fontSize=16;" vertex="1" parent="1">
          <mxGeometry x="540" y="710" width="120" height="60" as="geometry" />
        </mxCell>
        <mxCell id="uDqeAKN0CxZrEolLGgEj-7" value="" style="rounded=0;whiteSpace=wrap;html=1;strokeColor=none;" vertex="1" parent="1">
          <mxGeometry x="540" y="570" width="120" height="60" as="geometry" />
        </mxCell>
        <mxCell id="uDqeAKN0CxZrEolLGgEj-8" value="源码开发" style="rounded=0;whiteSpace=wrap;html=1;fillColor=#0050ef;fontColor=#ffffff;strokeColor=none;fontSize=16;" vertex="1" parent="1">
          <mxGeometry x="540" y="570" width="120" height="60" as="geometry" />
        </mxCell>
        <mxCell id="uDqeAKN0CxZrEolLGgEj-10" value="" style="rounded=0;whiteSpace=wrap;html=1;strokeColor=none;" vertex="1" parent="1">
          <mxGeometry x="730" y="570" width="120" height="60" as="geometry" />
        </mxCell>
        <mxCell id="uDqeAKN0CxZrEolLGgEj-11" value="开发人员" style="rounded=0;whiteSpace=wrap;html=1;fillColor=#0050ef;fontColor=#ffffff;strokeColor=none;fontSize=16;" vertex="1" parent="1">
          <mxGeometry x="730" y="570" width="130" height="60" as="geometry" />
        </mxCell>
        <mxCell id="uDqeAKN0CxZrEolLGgEj-12" value="业务/开发人员" style="rounded=0;whiteSpace=wrap;html=1;fillColor=#0050ef;fontColor=#ffffff;strokeColor=none;fontSize=16;" vertex="1" parent="1">
          <mxGeometry x="730" y="710" width="130" height="60" as="geometry" />
        </mxCell>
      </root>
    </mxGraphModel>
  </diagram>
</mxfile>
